<svg width="15" height="16" viewBox="0 0 15 16" fill="none" xmlns="http://www.w3.org/2000/svg">
<path d="M13.7567 4.03136C13.7229 3.96571 13.6741 3.90896 13.6143 3.86574C13.5545 3.82251 13.4853 3.79403 13.4123 3.7826C13.3394 3.77118 13.2648 3.77715 13.1946 3.80001C13.1244 3.82287 13.0607 3.86199 13.0084 3.91417L11.2084 5.71534C11.1201 5.80242 11.001 5.85123 10.8769 5.85123C10.7529 5.85123 10.6338 5.80242 10.5455 5.71534L9.76733 4.93604C9.72379 4.89252 9.68925 4.84084 9.66569 4.78396C9.64213 4.72708 9.63 4.66612 9.63 4.60455C9.63 4.54298 9.64213 4.48202 9.66569 4.42514C9.68925 4.36826 9.72379 4.31659 9.76733 4.27306L11.5597 2.48038C11.6134 2.42666 11.6533 2.36068 11.6759 2.28812C11.6984 2.21557 11.703 2.13861 11.6893 2.06389C11.6755 1.98917 11.6437 1.91892 11.5968 1.85918C11.5498 1.79945 11.489 1.75203 11.4197 1.72101C10.0659 1.11573 8.37602 1.43155 7.3105 2.48917C6.40522 3.388 6.1354 4.79249 6.57075 6.34259C6.59422 6.42525 6.59436 6.51279 6.57114 6.59553C6.54792 6.67826 6.50226 6.75296 6.43921 6.81134L1.56187 11.2659C1.37186 11.4365 1.2186 11.644 1.11143 11.8758C1.00427 12.1076 0.945444 12.3588 0.938551 12.6141C0.931659 12.8693 0.976841 13.1233 1.07134 13.3605C1.16584 13.5978 1.30768 13.8132 1.48821 13.9938C1.66873 14.1745 1.88415 14.3164 2.12134 14.411C2.35852 14.5056 2.61249 14.5509 2.86776 14.5441C3.12303 14.5373 3.37424 14.4786 3.60606 14.3716C3.83789 14.2645 4.04548 14.1113 4.21616 13.9214L8.7185 9.03321C8.77604 8.97097 8.84948 8.92561 8.93089 8.90202C9.0123 8.87843 9.09861 8.87749 9.18051 8.89932C9.62183 9.02024 10.077 9.08298 10.5346 9.08595C11.5131 9.08595 12.3718 8.76925 12.9912 8.15899C14.1381 7.02901 14.313 5.11241 13.7567 4.03136ZM2.91509 13.6006C2.72214 13.6217 2.52741 13.5823 2.35777 13.488C2.18814 13.3937 2.05196 13.249 1.96803 13.074C1.88411 12.899 1.85657 12.7022 1.88922 12.5109C1.92188 12.3196 2.01311 12.1431 2.15033 12.0058C2.28755 11.8686 2.464 11.7773 2.65532 11.7445C2.84663 11.7118 3.04339 11.7393 3.21843 11.8232C3.39348 11.907 3.53817 12.0431 3.63256 12.2128C3.72694 12.3824 3.76635 12.5771 3.74536 12.77C3.72226 12.9823 3.62737 13.1804 3.47639 13.3314C3.32541 13.4825 3.12738 13.5774 2.91509 13.6006Z" fill="#0052CC"/>
</svg>
